# xmcd CD database file
#
# Track frame offsets:
#	150
#	10861
#	20057
#	32757
#	42888
#	53934
#	65009
#	74794
#	84646
#	95248
#	104274
#	114732
#	125025
#	136263
#	146788
#	155826
#	168342
#	178430
#	189191
#	202700
#	214912
#
# Disc length: 3008 seconds
#
# Revision: 4
# Processed by: cddbd v1.5.2PL0 Copyright (c) Steve Scherf et al.
# Submitted via: CDex 1.51
#
DISCID=450bbe15
DTITLE=Buck Owens - 21 #1 Hits - The Ultimate Collection
DYEAR=2006
DGENRE=Country
TTITLE0=Act Naturally
TTITLE1=Love's Gonna Live Here
TTITLE2=Streets Of Bakersfield (with Dwight Yoakam)
TTITLE3=I've Got A Tiger By The Tail
TTITLE4=My Heart Skips A Beat
TTITLE5=Together Again
TTITLE6=I Don't Care (Just As Long As You Love Me)
TTITLE7=Before You Go
TTITLE8=Only You (Can Break My Heart)
TTITLE9=Buckaroo
TTITLE10=Waitin' In Your Welfare Line
TTITLE11=Think Of Me
TTITLE12=Open Up Your Heart
TTITLE13=Where Does The Good Times Go
TTITLE14=Sam's Place
TTITLE15=Your Tender Loving Care
TTITLE16=How Long Will My Baby Be Gone
TTITLE17=Who's Gonna Mow Your Grass
TTITLE18=Tall Dark Stranger
TTITLE19=Made In Japan
TTITLE20=Johnny B. Goode
EXTD=YEAR: 2006
EXTT0=
EXTT1=
EXTT2=
EXTT3=
EXTT4=
EXTT5=
EXTT6=
EXTT7=
EXTT8=
EXTT9=
EXTT10=
EXTT11=
EXTT12=
EXTT13=
EXTT14=
EXTT15=
EXTT16=
EXTT17=
EXTT18=
EXTT19=
EXTT20=
PLAYORDER=
